<svg width="500" height="510" viewBox="0 0 100 100" class="looka-1j8o68f"
    xmlns="http://www.w3.org/2000/svg">
    <defs id="SvgjsDefs1152"></defs>
    <g id="SvgjsG1153" featurekey="S6ay6y-0"
        transform="matrix(1.3508950793003611,0,0,1.3508950793003611,-10.807160634402889,-10.233031256351389)"
        fill="#00adb5">
        <g xmlns="http://www.w3.org/2000/svg">
            <path
                d="M33.3,81.9c4.5,0,8.6-1.5,11.9-4c0.2-0.1,0.4-0.2,0.6-0.4l0.6-0.6c0.6-0.5,1.1-1,1.6-1.6l33-33c0.7-0.7,0.7-1.7,0-2.4   c-0.7-0.7-1.7-0.7-2.4,0L52.8,65.8c0.2-1.2,0.4-2.4,0.4-3.7c0-0.9-0.8-1.7-1.7-1.7s-1.7,0.8-1.7,1.7c0,4.1-1.5,7.9-4,10.8l-1.6,1.6   c-2.9,2.5-6.7,4-10.8,4c-9.1,0-16.5-7.4-16.5-16.5c0-3.7,1.2-7,3.2-9.8l3.4-3.4c2.7-2,6.1-3.2,9.8-3.2c0.9,0,1.7-0.8,1.7-1.7   s-0.8-1.7-1.7-1.7c-1.2,0-2.3,0.1-3.5,0.3l11.7-11.7c0.7-0.7,0.7-1.7,0-2.4c-0.7-0.7-1.7-0.7-2.4,0L21.3,46.3   c-1.4,1.1-2.7,2.3-3.7,3.7l-0.1,0.1c-0.1,0.1-0.2,0.3-0.3,0.4c-2.3,3.3-3.7,7.2-3.7,11.5C13.5,73,22.4,81.9,33.3,81.9z"></path>
            <path
                d="M44.7,43.8c0.4,0,0.9-0.2,1.2-0.5l32.8-32.8c0.7-0.7,0.7-1.7,0-2.4c-0.7-0.7-1.7-0.7-2.4,0L43.5,40.9   c-0.7,0.7-0.7,1.7,0,2.4C43.8,43.6,44.3,43.8,44.7,43.8z"></path>
            <path
                d="M46.4,25.8c0.4,0,0.9-0.2,1.2-0.5l6.3-6.3c0.7-0.7,0.7-1.7,0-2.4c-0.7-0.7-1.7-0.7-2.4,0l-6.3,6.3c-0.7,0.7-0.7,1.7,0,2.4   C45.5,25.6,46,25.8,46.4,25.8z"></path>
            <path
                d="M79.1,20.5l-1.9,1.9c-0.7,0.7-0.7,1.7,0,2.4c0.3,0.3,0.8,0.5,1.2,0.5s0.9-0.2,1.2-0.5l1.9-1.9c0.7-0.7,0.7-1.7,0-2.4   C80.8,19.8,79.8,19.8,79.1,20.5z"></path>
            <path
                d="M77.1,62.2v-2c0-0.9-0.8-1.7-1.7-1.7s-1.7,0.8-1.7,1.7v2c0,0.9,0.8,1.7,1.7,1.7S77.1,63.2,77.1,62.2z"></path>
            <path
                d="M75.4,66.2c-0.9,0-1.7,0.8-1.7,1.7v2c0,0.9,0.8,1.7,1.7,1.7s1.7-0.8,1.7-1.7v-2C77.1,66.9,76.3,66.2,75.4,66.2z"></path>
            <path
                d="M72.6,63.4h-2c-0.9,0-1.7,0.8-1.7,1.7s0.8,1.7,1.7,1.7h2c0.9,0,1.7-0.8,1.7-1.7S73.5,63.4,72.6,63.4z"></path>
            <path
                d="M80.2,63.4h-2c-0.9,0-1.7,0.8-1.7,1.7s0.8,1.7,1.7,1.7h2c0.9,0,1.7-0.8,1.7-1.7S81.1,63.4,80.2,63.4z"></path>
            <path
                d="M14.5,30.5c0.9,0,1.7-0.8,1.7-1.7v-2c0-0.9-0.8-1.7-1.7-1.7s-1.7,0.8-1.7,1.7v2C12.8,29.8,13.6,30.5,14.5,30.5z"></path>
            <path
                d="M16.2,36.4v-2c0-0.9-0.8-1.7-1.7-1.7s-1.7,0.8-1.7,1.7v2c0,0.9,0.8,1.7,1.7,1.7S16.2,37.3,16.2,36.4z"></path>
            <path
                d="M13.4,31.6c0-0.9-0.8-1.7-1.7-1.7h-2c-0.9,0-1.7,0.8-1.7,1.7s0.8,1.7,1.7,1.7h2C12.6,33.3,13.4,32.6,13.4,31.6z"></path>
            <path
                d="M15.6,31.6c0,0.9,0.8,1.7,1.7,1.7h2c0.9,0,1.7-0.8,1.7-1.7s-0.8-1.7-1.7-1.7h-2C16.4,29.9,15.6,30.7,15.6,31.6z"></path>
            <path
                d="M37.4,66.2c-0.4,0-0.9-0.2-1.2-0.5c-0.7-0.7-0.7-1.7,0-2.4l7.8-7.8c-2.2-3.6-6.1-6-10.7-6c-6.9,0-12.5,5.6-12.5,12.5   s5.6,12.5,12.5,12.5c6.9,0,12.5-5.6,12.5-12.5c0-1.1-0.1-2.1-0.4-3.1l-6.8,6.8C38.3,66.1,37.9,66.2,37.4,66.2z M31.3,62   c-1.4,0-2.5-1.1-2.5-2.5c0-1.4,1.1-2.5,2.5-2.5c1.4,0,2.5,1.1,2.5,2.5C33.8,60.8,32.7,62,31.3,62z"></path>
            <path
                d="M76,26c-0.7-0.7-1.7-0.7-2.4,0L44,55.6c0.6,1,1.1,2.2,1.4,3.4L76,28.3C76.7,27.7,76.7,26.6,76,26z"></path>
        </g>
    </g>
</svg>