<svg width="400.8" height="108.76335550912069" viewBox="0 0 370 100.40529325941779"
    class="looka-1j8o68f" xmlns="http://www.w3.org/2000/svg">
    <defs id="SvgjsDefs1152"></defs>
    <g id="SvgjsG1153" featurekey="S6ay6y-0"
        transform="matrix(1.3508950793003611,0,0,1.3508950793003611,-10.807160634402889,-10.233031256351389)"
        fill="#00adb5">
        <g xmlns="http://www.w3.org/2000/svg">
            <path
                d="M33.3,81.9c4.5,0,8.6-1.5,11.9-4c0.2-0.1,0.4-0.2,0.6-0.4l0.6-0.6c0.6-0.5,1.1-1,1.6-1.6l33-33c0.7-0.7,0.7-1.7,0-2.4   c-0.7-0.7-1.7-0.7-2.4,0L52.8,65.8c0.2-1.2,0.4-2.4,0.4-3.7c0-0.9-0.8-1.7-1.7-1.7s-1.7,0.8-1.7,1.7c0,4.1-1.5,7.9-4,10.8l-1.6,1.6   c-2.9,2.5-6.7,4-10.8,4c-9.1,0-16.5-7.4-16.5-16.5c0-3.7,1.2-7,3.2-9.8l3.4-3.4c2.7-2,6.1-3.2,9.8-3.2c0.9,0,1.7-0.8,1.7-1.7   s-0.8-1.7-1.7-1.7c-1.2,0-2.3,0.1-3.5,0.3l11.7-11.7c0.7-0.7,0.7-1.7,0-2.4c-0.7-0.7-1.7-0.7-2.4,0L21.3,46.3   c-1.4,1.1-2.7,2.3-3.7,3.7l-0.1,0.1c-0.1,0.1-0.2,0.3-0.3,0.4c-2.3,3.3-3.7,7.2-3.7,11.5C13.5,73,22.4,81.9,33.3,81.9z"></path>
            <path
                d="M44.7,43.8c0.4,0,0.9-0.2,1.2-0.5l32.8-32.8c0.7-0.7,0.7-1.7,0-2.4c-0.7-0.7-1.7-0.7-2.4,0L43.5,40.9   c-0.7,0.7-0.7,1.7,0,2.4C43.8,43.6,44.3,43.8,44.7,43.8z"></path>
            <path
                d="M46.4,25.8c0.4,0,0.9-0.2,1.2-0.5l6.3-6.3c0.7-0.7,0.7-1.7,0-2.4c-0.7-0.7-1.7-0.7-2.4,0l-6.3,6.3c-0.7,0.7-0.7,1.7,0,2.4   C45.5,25.6,46,25.8,46.4,25.8z"></path>
            <path
                d="M79.1,20.5l-1.9,1.9c-0.7,0.7-0.7,1.7,0,2.4c0.3,0.3,0.8,0.5,1.2,0.5s0.9-0.2,1.2-0.5l1.9-1.9c0.7-0.7,0.7-1.7,0-2.4   C80.8,19.8,79.8,19.8,79.1,20.5z"></path>
            <path
                d="M77.1,62.2v-2c0-0.9-0.8-1.7-1.7-1.7s-1.7,0.8-1.7,1.7v2c0,0.9,0.8,1.7,1.7,1.7S77.1,63.2,77.1,62.2z"></path>
            <path
                d="M75.4,66.2c-0.9,0-1.7,0.8-1.7,1.7v2c0,0.9,0.8,1.7,1.7,1.7s1.7-0.8,1.7-1.7v-2C77.1,66.9,76.3,66.2,75.4,66.2z"></path>
            <path
                d="M72.6,63.4h-2c-0.9,0-1.7,0.8-1.7,1.7s0.8,1.7,1.7,1.7h2c0.9,0,1.7-0.8,1.7-1.7S73.5,63.4,72.6,63.4z"></path>
            <path
                d="M80.2,63.4h-2c-0.9,0-1.7,0.8-1.7,1.7s0.8,1.7,1.7,1.7h2c0.9,0,1.7-0.8,1.7-1.7S81.1,63.4,80.2,63.4z"></path>
            <path
                d="M14.5,30.5c0.9,0,1.7-0.8,1.7-1.7v-2c0-0.9-0.8-1.7-1.7-1.7s-1.7,0.8-1.7,1.7v2C12.8,29.8,13.6,30.5,14.5,30.5z"></path>
            <path
                d="M16.2,36.4v-2c0-0.9-0.8-1.7-1.7-1.7s-1.7,0.8-1.7,1.7v2c0,0.9,0.8,1.7,1.7,1.7S16.2,37.3,16.2,36.4z"></path>
            <path
                d="M13.4,31.6c0-0.9-0.8-1.7-1.7-1.7h-2c-0.9,0-1.7,0.8-1.7,1.7s0.8,1.7,1.7,1.7h2C12.6,33.3,13.4,32.6,13.4,31.6z"></path>
            <path
                d="M15.6,31.6c0,0.9,0.8,1.7,1.7,1.7h2c0.9,0,1.7-0.8,1.7-1.7s-0.8-1.7-1.7-1.7h-2C16.4,29.9,15.6,30.7,15.6,31.6z"></path>
            <path
                d="M37.4,66.2c-0.4,0-0.9-0.2-1.2-0.5c-0.7-0.7-0.7-1.7,0-2.4l7.8-7.8c-2.2-3.6-6.1-6-10.7-6c-6.9,0-12.5,5.6-12.5,12.5   s5.6,12.5,12.5,12.5c6.9,0,12.5-5.6,12.5-12.5c0-1.1-0.1-2.1-0.4-3.1l-6.8,6.8C38.3,66.1,37.9,66.2,37.4,66.2z M31.3,62   c-1.4,0-2.5-1.1-2.5-2.5c0-1.4,1.1-2.5,2.5-2.5c1.4,0,2.5,1.1,2.5,2.5C33.8,60.8,32.7,62,31.3,62z"></path>
            <path
                d="M76,26c-0.7-0.7-1.7-0.7-2.4,0L44,55.6c0.6,1,1.1,2.2,1.4,3.4L76,28.3C76.7,27.7,76.7,26.6,76,26z"></path>
        </g>
    </g>
    <g id="SvgjsG1154" featurekey="j5pGhi-0"
        transform="matrix(3.773018313324484,0,0,3.773018313324484,115.91057846998396,4.866717060126952)"
        fill="#000000">
        <path
            d="M15.244 7.715 l-1.1523 0.85938 q-0.9375 -1.23046875 -2.260742188 -1.860351563 t-2.9053 -0.62988 q-1.73828125 0 -3.212890625 0.830078125 t-2.29 2.2314 t-0.81543 3.1592 q0 2.646484375 1.81640625 4.262695313 t4.5801 1.6162 q3.046875 0 5.087890625 -2.3828125 l1.1523 0.86914 q-1.083984375 1.376953125 -2.705078125 2.12890625 t-3.6133 0.75195 q-3.80859375 0 -6.005859375 -2.529296875 q-1.8359375 -2.138671875 -1.8359375 -4.84375 q0 -3.173828125 2.231445313 -5.3515625 t5.5811 -2.1777 q2.03125 0 3.666992188 0.8056640625 t2.6807 2.2607 z M22.968753125 8.203 q2.470703125 0 4.1015625 1.787109375 q1.474609375 1.640625 1.474609375 3.876953125 t-1.5625 3.9111 t-4.0137 1.6748 q-2.4609375 0 -4.018554688 -1.674804688 t-1.5576 -3.9111 q0 -2.2265625 1.474609375 -3.8671875 q1.630859375 -1.796875 4.1015625 -1.796875 z M22.968753125 9.551 q-1.708984375 0 -2.939453125 1.26953125 t-1.2305 3.0664 q0 1.162109375 0.5615234375 2.172851563 t1.5186 1.5527 t2.0898 0.54199 q1.15234375 0 2.104492188 -0.5419921875 t1.5088 -1.5527 t0.55664 -2.1729 q0 -1.796875 -1.23046875 -3.06640625 t-2.9395 -1.2695 z M31.06448125 15.293 l0 -1.709 q0.17578125 -2.1875 0.91796875 -3.203125 q0.615234375 -0.927734375 1.611328125 -1.474609375 q0.654296875 -0.419921875 1.865234375 -0.44921875 q0.78125 0 1.58203125 0.29296875 t1.2402 0.78125 t0.88867 1.4648 q0.244140625 -0.625 1.025390625 -1.46484375 q0.380859375 -0.322265625 0.986328125 -0.634765625 q0.41015625 -0.263671875 1.904296875 -0.439453125 q1.11328125 0 2.138671875 0.556640625 t1.4404 1.5674 t0.41504 3.0127 l0 5.8496 l-1.4063 0 l0 -5.8496 q0 -1.71875 -0.244140625 -2.36328125 t-0.83984 -1.04 t-1.4355 -0.39551 q-1.58203125 0.107421875 -2.705078125 1.533203125 q-0.439453125 0.60546875 -0.6640625 2.685546875 l0 5.4297 l-1.377 0 l0 -5.4883 q0 -1.93359375 -0.4296875 -2.631835938 t-1.0254 -1.1133 t-1.4844 -0.41504 q-0.95703125 0 -1.645507813 0.48828125 t-1.0791 1.46 t-0.3125 3.1592 l0 4.541 l-1.3672 0 l0 -4.1504 z M58.9845 15.6348 l1.1523 0.61523 q-0.556640625 1.123046875 -1.30859375 1.806640625 t-1.6895 1.04 t-2.1191 0.35645 q-2.6171875 0 -4.091796875 -1.713867188 t-1.4746 -3.8721 q0 -2.041015625 1.25 -3.6328125 q1.58203125 -2.03125 4.248046875 -2.03125 q2.724609375 0 4.365234375 2.080078125 q1.162109375 1.46484375 1.171875 3.65234375 l-9.6191 0 q0.0390625 1.875 1.19140625 3.071289063 t2.8418 1.1963 q0.8203125 0 1.591796875 -0.2880859375 t1.3135 -0.75684 t1.1768 -1.5234 z M58.9845 12.7539 q-0.2734375 -1.103515625 -0.80078125 -1.762695313 t-1.3965 -1.0645 t-1.8262 -0.40527 q-1.572265625 0 -2.705078125 1.015625 q-0.8203125 0.7421875 -1.240234375 2.216796875 l7.9688 0 z M66.9140375 17.9297 q-1.015625 0.546875 -1.9921875 0.087890625 q-1.19140625 -0.908203125 -1.1328125 -2.587890625 l0 -4.5313 l2.5391 0 l0 -1.1816 l-2.5488 0 l0 -5.1758 l-1.3867 0 l0 11.123 q-0.01953125 1.171875 0.537109375 2.1484375 q0.91796875 1.552734375 2.5 1.640625 q0.83984375 0.029296875 1.9140625 -0.380859375 q-0.166015625 -0.41015625 -0.4296875 -1.142578125 z"></path>
    </g>
</svg>